<svg width="30" height="30" viewBox="0 0 80 80" fill="none" xmlns="http://www.w3.org/2000/svg">
  <path fill-rule="evenodd" clip-rule="evenodd" d="M27.6488 48.6343C27.6093 48.6489 27.5698 48.6636 27.5304 48.6784L26.3003 49.1394C20.1048 51.4615 16 57.3836 16 64C16 66.2091 17.7909 68 20 68H60C62.2091 68 64 66.2091 64 64C64 57.3836 59.8952 51.4615 53.6997 49.1395L52.4696 48.6784C52.4302 48.6636 52.3907 48.6489 52.3512 48.6343L45.908 54.0897C42.4983 56.9767 37.5017 56.9767 34.092 54.0897L27.6488 48.6343Z" fill="#2F80ED" />
  <path d="M27.0335 18.8432C33.4205 10.0084 46.5795 10.0084 52.9665 18.8432L59.581 27.9927C63.2551 33.0749 62.3964 40.129 57.6104 44.1813L45.908 54.0897C42.4983 56.9767 37.5017 56.9767 34.092 54.0897L22.3896 44.1813C17.6036 40.129 16.7449 33.0749 20.419 27.9927L27.0335 18.8432Z" fill="#9B51E0" />
  <path fill-rule="evenodd" clip-rule="evenodd" d="M52.9666 18.8434C46.5797 10.0086 33.4206 10.0086 27.0336 18.8434L20.4191 27.9929C18.6408 30.4528 17.9244 33.3747 18.2012 36.1945C24.0233 31.0925 31.6506 28 40.0001 28C48.3497 28 55.9769 31.0925 61.799 36.1945C62.0759 33.3747 61.3595 30.4528 59.5812 27.993L52.9666 18.8434Z" fill="#2F80ED" />
  <path fill-rule="evenodd" clip-rule="evenodd" d="M26.4551 30.8891C30.5895 29.0318 35.1745 27.9985 40.0007 27.9985C44.8268 27.9985 49.4117 29.0317 53.546 30.889C53.4972 31.5082 53.4074 32.1273 53.2758 32.7422L53.0521 33.7875C52.2141 37.7039 49.6617 41.037 46.0991 42.867C42.2712 44.8333 37.73 44.8333 33.902 42.867C30.3395 41.037 27.787 37.7039 26.949 33.7875L26.7253 32.7422C26.5937 32.1273 26.5039 31.5083 26.4551 30.8891Z" fill="#F2C94C" />
</svg>