<svg version="1.1" id="Warstwa_3" xmlns="http://www.w3.org/2000/svg" xmlns:xlink="http://www.w3.org/1999/xlink" x="0px" y="0px"
	 viewBox="0 0 430 430" style="enable-background:new 0 0 430 430;" xml:space="preserve">
<style type="text/css">
	.st0{fill:#121331;}
	.st1{fill:#08a88a;}
	.st2{fill:none;stroke:#08a88a;stroke-width:12.25;stroke-miterlimit:14;}
	.st3{fill-opacity:0;}
	.st4{fill:#131432;}
	.st5{fill:none;}
</style>
<g transform="matrix(1,0,0,1,0,0)">
	<path class="st0" d="M388.63,307.94c-1.57,0-3.13-0.6-4.33-1.79L215,136.85L45.7,306.15c-2.39,2.39-6.27,2.39-8.66,0
		c-2.39-2.39-2.39-6.27,0-8.66l173.63-173.63c1.15-1.15,2.71-1.79,4.33-1.79l0,0c1.62,0,3.18,0.65,4.33,1.79l173.63,173.63
		c2.39,2.39,2.39,6.27,0,8.66C391.77,307.34,390.2,307.94,388.63,307.94z"/>
</g>
</svg>
