<svg viewBox="0 0 1250 1091" version="1.1" xmlns="http://www.w3.org/2000/svg" desc="Created on https://convert2svg.com/" ><path fill="rgb(16,6,11)" stroke="rgb(16,6,11)" stroke-width="1" opacity="0.996078431372549" d="M 622 334 L 631.5 334 L 633 335.5 L 708 496.5 L 588 752.5 L 581 770 L 570 769.5 L 669 558.5 L 680 532.5 L 682 530.5 L 697 497.5 L 697 494.5 L 622 334 Z " /><path fill="rgb(16,6,11)" stroke="rgb(16,6,11)" stroke-width="1" opacity="0.996078431372549" d="M 597.5 337 L 602 345.5 L 602 349.5 L 405.5 770 Q 401.8 769.3 401 771.5 L 384 807.5 L 384 811 L 390 813.5 L 388.5 814 L 387.5 813 L 379.5 813 L 373 809.5 L 388 776.5 L 392.5 770 L 396 768.5 L 597.5 337 Z " /><path fill="rgb(16,6,11)" stroke="rgb(16,6,11)" stroke-width="1" opacity="0.996078431372549" d="M 751 530 Q 753.7 528.9 753 531.5 L 757 540.5 L 701 660 L 685.5 672 L 686 670.5 L 751 530 Z " /><path fill="rgb(16,6,11)" stroke="rgb(16,6,11)" stroke-width="1" opacity="0.996078431372549" d="M 741.5 634 Q 743.8 633.3 743 635.5 L 760 673.5 L 659 749 L 629 815 L 619.5 815 L 619 812.5 L 644 758.5 L 648 750.5 L 651.5 747 L 749 673.5 L 735 639.5 L 741.5 634 Z " /><path fill="rgb(16,6,11)" stroke="rgb(16,6,11)" stroke-width="1" opacity="0.996078431372549" d="M 782.5 726 L 795 752.5 L 714.5 814 L 705 814 L 706.5 811 L 784 754 L 784 750.5 L 777 736.5 L 776 731.5 L 782.5 726 Z " /><path fill="rgb(16,6,11)" stroke="rgb(16,6,11)" stroke-width="1" opacity="0.996078431372549" d="M 820.5 811 L 821.5 813 L 819 812.5 L 820.5 811 Z " /><path fill="rgb(16,6,11)" stroke="rgb(16,6,11)" stroke-width="1" opacity="0.996078431372549" d="M 393.5 813 L 399 813.5 L 393.5 814 L 393.5 813 Z " /><path fill="rgb(16,6,11)" stroke="rgb(16,6,11)" stroke-width="1" opacity="0.996078431372549" d="M 401.5 813 L 418 815.5 L 408.5 816 L 400 814.5 L 401.5 813 Z " /><path fill="rgb(16,6,11)" stroke="rgb(16,6,11)" stroke-width="1" opacity="0.996078431372549" d="M 420.5 816 L 426 816.5 L 420.5 817 L 420.5 816 Z " /><path fill="rgb(16,6,11)" stroke="rgb(16,6,11)" stroke-width="1" opacity="0.996078431372549" d="M 427.5 816 L 431 816.5 L 427.5 817 L 427.5 816 Z " /><path fill="rgb(0,0,0)" stroke="rgb(0,0,0)" stroke-width="1" opacity="0" d="M 0 0 L 1250 0 L 1250 1091 L 0 1091 L 0 0 Z M 620 331 L 618 333 L 618 338 L 637 375 L 641 386 L 644 390 L 660 427 L 664 433 L 674 457 L 678 463 L 693 496 L 567 767 L 454 767 L 456 765 L 485 700 L 489 694 L 494 681 L 627 397 L 626 387 L 601 333 L 593 334 L 583 359 L 393 766 Q 392 768 388 767 L 371 804 L 370 814 L 379 817 L 404 818 L 412 820 L 555 820 L 561 818 L 569 818 L 580 816 L 582 816 L 610 811 L 612 804 L 623 780 L 647 731 L 679 660 L 681 658 L 691 634 L 696 626 L 743 522 L 749 520 L 749 514 L 657 333 L 656 331 L 620 331 Z M 752 525 L 748 526 L 744 538 L 740 544 L 739 549 L 732 561 L 723 583 L 717 593 L 713 604 L 685 662 L 682 669 L 682 677 L 689 676 L 719 650 L 731 641 L 744 673 L 691 713 Q 688 712 689 715 L 682 719 L 649 744 L 643 752 L 626 791 L 616 810 L 616 818 L 618 819 L 653 819 L 658 818 L 771 733 L 779 752 L 711 804 L 702 809 L 701 813 L 702 818 L 878 817 L 881 816 L 881 808 L 878 804 L 877 799 L 874 795 L 860 761 L 858 759 L 845 727 L 842 723 L 835 704 L 833 702 L 809 646 Q 805 644 808 643 L 797 621 L 796 616 L 793 612 L 757 528 Q 756 524 752 525 Z " /><path fill="rgb(252,103,178)" stroke="rgb(252,103,178)" stroke-width="1" opacity="0.9372549019607843" d="M 619.5 331 L 655.5 331 L 657 332.5 L 749 513.5 L 749 520 L 743 522 L 696 625.5 L 691 633.5 L 681 657.5 L 679 659.5 L 647 730.5 L 623 779.5 L 612 803.5 L 610 811 L 581.5 816 L 579.5 816 L 568.5 818 L 560.5 818 L 554.5 820 L 411.5 820 L 403.5 818 L 378.5 817 L 370 814 L 371 803.5 L 388 767 Q 391.8 768 393 765.5 L 583 358.5 L 593 334 L 601 333 L 626 386.5 L 627 396.5 L 494 680.5 L 489 693.5 L 485 699.5 L 456 764.5 L 454 766.5 L 566.5 767 L 693 495.5 L 678 462.5 L 674 456.5 L 664 432.5 L 660 426.5 L 644 389.5 L 641 385.5 L 637 374.5 L 618 337.5 L 618 332.5 L 619.5 331 Z M 622 334 L 697 495 L 697 498 L 682 531 L 680 533 L 669 559 L 570 770 L 581 770 L 588 753 L 708 497 L 633 336 L 632 334 L 622 334 Z M 598 337 L 396 769 L 393 770 L 388 777 L 373 810 L 380 813 L 388 813 L 389 814 L 390 814 L 384 811 L 384 808 L 401 772 Q 402 769 406 770 L 602 350 L 602 346 L 598 337 Z M 394 813 L 394 814 L 399 814 L 394 813 Z M 402 813 L 400 815 L 409 816 L 418 816 L 402 813 Z M 421 816 L 421 817 L 426 817 L 421 816 Z M 428 816 L 428 817 L 431 817 L 428 816 Z " /><path fill="rgb(252,103,178)" stroke="rgb(252,103,178)" stroke-width="1" opacity="0.9372549019607843" d="M 751.5 525 Q 756.3 524.3 757 527.5 L 793 611.5 L 796 615.5 L 797 620.5 L 808 642.5 Q 805.5 644 809 645.5 L 833 701.5 L 835 703.5 L 842 722.5 L 845 726.5 L 858 758.5 L 860 760.5 L 874 794.5 L 877 798.5 L 878 803.5 L 881 807.5 L 881 816 L 877.5 817 L 702 818 L 701 812.5 L 702 809 L 710.5 804 L 779 751.5 L 770.5 733 L 657.5 818 L 652.5 819 L 617.5 819 L 616 817.5 L 616 809.5 L 626 790.5 L 643 751.5 L 648.5 744 L 681.5 719 L 689 715 Q 687.9 712.3 690.5 713 L 744 672.5 L 731 641 L 718.5 650 L 688.5 676 L 682 677 L 682 668.5 L 685 661.5 L 713 603.5 L 717 592.5 L 723 582.5 L 732 560.5 L 739 548.5 L 740 543.5 L 744 537.5 L 748 526 L 751.5 525 Z M 751 530 L 701 639 L 699 641 L 696 650 L 686 669 L 686 671 L 701 660 L 757 541 L 753 532 Q 754 529 751 530 Z M 742 634 L 735 640 L 749 674 L 652 747 L 648 751 L 644 759 L 619 813 L 620 815 L 629 815 L 659 749 L 760 674 L 743 636 Q 744 633 742 634 Z M 783 726 L 776 732 L 777 737 L 784 751 L 784 754 L 707 811 L 705 814 L 715 814 L 795 753 L 783 726 Z M 821 811 L 819 813 L 822 813 L 821 811 Z " /></svg>