<?xml version="1.0" encoding="UTF-8"?>
<!DOCTYPE svg PUBLIC "-//W3C//DTD SVG 1.1//EN" "http://www.w3.org/Graphics/SVG/1.1/DTD/svg11.dtd">
<svg xmlns="http://www.w3.org/2000/svg" version="1.1" width="1280px" height="1280px" style="shape-rendering:geometricPrecision; text-rendering:geometricPrecision; image-rendering:optimizeQuality; fill-rule:evenodd; clip-rule:evenodd" xmlns:xlink="http://www.w3.org/1999/xlink">
<g><path style="opacity:0.981" fill="#2ebfda" d="M 634.5,326.5 C 650.078,326.176 665.578,326.509 681,327.5C 717.411,399.323 754.078,470.99 791,542.5C 793.56,547.518 795.727,552.684 797.5,558C 796.796,562.373 794.296,565.207 790,566.5C 733.918,686.483 678.084,806.316 622.5,926C 598.287,930.411 573.953,934.078 549.5,937C 494.167,937.667 438.833,937.667 383.5,937C 366.833,935.667 350.167,934.333 333.5,933C 330.395,931.132 327.062,929.965 323.5,929.5C 323.335,925.818 323.501,922.152 324,918.5C 331.607,902.954 338.94,887.287 346,871.5C 350.973,870.527 353.973,867.527 355,862.5C 437.533,685.439 520.033,508.439 602.5,331.5C 606.878,329.811 610.712,330.478 614,333.5C 623.726,355.286 633.726,376.953 644,398.5C 645.405,402.072 645.738,405.739 645,409.5C 573.372,562.591 501.872,715.758 430.5,869C 477.071,869.83 523.571,869.664 570,868.5C 622.301,757.222 674.134,645.555 725.5,533.5C 696.232,469.628 666.399,405.961 636,342.5C 633.448,337.318 632.948,331.985 634.5,326.5 Z"/></g>
<g><path style="opacity:0.979" fill="#2ebfda" d="M 796.5,569.5 C 802.302,568.006 806.136,570.006 808,575.5C 858.416,691.008 909.416,806.341 961,921.5C 961.667,924.5 961.667,927.5 961,930.5C 960.5,931.667 959.667,932.5 958.5,933C 893.335,933.949 828.168,934.783 763,935.5C 754.403,935.638 745.903,935.138 737.5,934C 736.878,932.431 736.544,930.764 736.5,929C 736.34,926.53 737.007,924.364 738.5,922.5C 770.525,899.153 802.192,875.32 833.5,851C 830.033,843.9 826.7,836.733 823.5,829.5C 776.5,864.667 729.5,899.833 682.5,935C 665.167,935.667 647.833,935.667 630.5,935C 629.374,931.256 629.207,927.423 630,923.5C 642.863,897.773 655.196,871.773 667,845.5C 707.602,814.124 748.436,783.124 789.5,752.5C 784.728,739.625 778.895,727.291 772,715.5C 755.136,730.031 737.969,744.197 720.5,758C 717.833,758.667 715.167,758.667 712.5,758C 711.06,753.343 711.56,748.843 714,744.5C 741.481,686.202 768.981,627.869 796.5,569.5 Z"/></g>
</svg>
