<?xml version="1.0" standalone="no"?>
<!DOCTYPE svg PUBLIC "-//W3C//DTD SVG 20010904//EN"
 "http://www.w3.org/TR/2001/REC-SVG-20010904/DTD/svg10.dtd">
<svg version="1.0" xmlns="http://www.w3.org/2000/svg"
 width="1250.000000pt" height="1250.000000pt" viewBox="0 0 1250.000000 1250.000000"
 preserveAspectRatio="xMidYMid meet">
<metadata>
Created by potrace 1.14, written by BAYC Selinger 2001-2017
</metadata>
<g transform="translate(0.000000,1250.000000) scale(0.100000,-0.100000)"
fill="#000000" stroke="none">
<path d="M6196 8368 c-2 -10 -1 -18 2 -18 4 0 8 -12 9 -26 0 -15 7 -30 15 -35
7 -5 9 -9 5 -9 -5 0 0 -15 11 -32 12 -18 21 -35 21 -38 0 -3 12 -32 26 -65 15
-33 26 -62 25 -64 -1 -2 2 -7 7 -10 14 -10 45 -71 36 -71 -4 0 -3 -4 3 -8 5
-4 18 -25 28 -47 24 -52 74 -158 126 -270 24 -49 43 -96 43 -102 0 -7 4 -13 8
-13 8 0 43 -85 39 -96 -1 -4 3 -10 8 -13 15 -9 52 -88 45 -95 -4 -3 -1 -6 5
-6 7 0 12 -9 12 -20 0 -11 5 -20 11 -20 5 0 7 -4 4 -10 -3 -5 -1 -10 5 -10 6
0 8 -4 5 -10 -3 -5 -1 -10 6 -10 7 0 10 -3 7 -6 -4 -3 11 -41 33 -85 21 -43
39 -84 39 -90 0 -6 7 -17 15 -26 8 -8 13 -19 10 -24 -4 -5 -1 -9 4 -9 6 0 10
-3 9 -7 -2 -7 53 -130 83 -185 5 -10 9 -24 9 -32 0 -8 5 -16 10 -18 6 -2 12
-13 15 -26 2 -12 7 -27 11 -34 4 -7 3 -8 -4 -4 -7 4 -12 1 -12 -9 0 -9 -8 -30
-17 -48 -9 -18 -17 -34 -18 -37 0 -3 -17 -40 -38 -83 -20 -43 -45 -95 -53
-117 -9 -22 -20 -40 -25 -40 -5 0 -8 -3 -7 -8 4 -11 -34 -95 -47 -104 -5 -4
-7 -8 -2 -8 4 0 -5 -24 -20 -52 -15 -29 -27 -55 -28 -58 0 -3 -15 -36 -33 -73
-18 -38 -32 -73 -32 -78 0 -6 -4 -7 -10 -4 -6 3 -7 -1 -4 -9 4 -10 1 -16 -7
-16 -7 0 -9 -3 -6 -6 4 -4 -2 -23 -12 -43 -31 -60 -55 -116 -53 -123 1 -5 -2
-8 -7 -8 -5 0 -12 -10 -16 -22 -4 -13 -8 -25 -9 -28 -3 -9 -67 -144 -92 -193
-13 -27 -24 -55 -24 -62 0 -7 -6 -18 -14 -24 -8 -7 -18 -26 -21 -42 -4 -16
-11 -29 -17 -29 -6 0 -9 -3 -5 -6 3 -3 -5 -26 -19 -51 -13 -25 -24 -52 -24
-59 0 -7 -7 -19 -15 -28 -9 -8 -14 -19 -13 -23 1 -4 -11 -33 -27 -63 -16 -30
-29 -58 -30 -61 0 -13 -70 -154 -78 -160 -5 -3 -9 -10 -9 -15 -1 -15 -18 -58
-39 -96 -11 -21 -17 -38 -12 -38 4 0 -1 -7 -11 -15 -11 -8 -17 -15 -14 -15 6
0 -41 -105 -119 -267 -14 -29 -25 -56 -25 -60 0 -4 -7 -16 -15 -25 -9 -10 -13
-18 -10 -18 3 0 -9 -30 -27 -67 -53 -106 -86 -181 -86 -192 0 -6 -4 -11 -10
-11 -5 0 -10 -4 -10 -9 0 -5 -8 -26 -17 -47 -9 -22 -16 -42 -15 -46 1 -3 -5
-9 -13 -12 -8 -3 -15 -1 -15 5 0 6 -5 7 -12 3 -16 -10 -78 -11 -78 -1 0 5 -5
5 -12 1 -17 -11 -58 -11 -58 -1 0 4 -5 5 -12 1 -17 -11 -109 -11 -115 -1 -3 4
-10 4 -16 0 -15 -10 -38 -10 -54 0 -7 5 -13 4 -13 -1 0 -9 -47 -8 -57 2 -3 3
-13 1 -22 -4 -10 -5 -23 -5 -30 -1 -7 5 -30 5 -52 1 -22 -4 -39 -3 -39 2 0 5
-5 6 -12 2 -17 -11 -58 -11 -58 -1 0 6 -5 6 -12 0 -7 -5 -35 -8 -63 -6 -27 2
-54 3 -60 3 -5 1 -22 -1 -37 -3 -16 -2 -28 0 -28 6 0 5 -5 5 -13 -2 -10 -8
-17 -7 -25 1 -8 8 -12 8 -12 1 0 -6 -12 -8 -27 -6 -16 2 -35 4 -43 3 -8 0 -28
0 -45 1 -16 1 -34 1 -40 0 -26 -2 -71 -3 -85 -2 -12 1 -12 3 -2 10 8 4 13 11
13 15 -1 3 6 23 15 44 10 20 18 40 18 44 1 3 4 10 9 14 4 4 7 16 7 26 0 10 3
18 8 18 6 0 46 80 43 87 -1 3 56 120 70 143 5 8 12 22 16 30 3 8 14 34 24 57
11 23 19 47 19 52 0 6 5 11 10 11 6 0 10 7 10 14 0 8 16 46 35 85 19 38 35 74
35 80 0 6 5 11 12 11 6 0 9 2 6 6 -3 3 8 33 25 67 17 34 31 64 32 67 11 39
127 275 136 278 5 2 7 8 3 13 -3 5 4 26 15 47 30 54 74 156 73 165 -1 4 2 7 8
7 5 0 10 4 10 10 0 5 14 39 30 73 17 35 30 69 30 75 0 7 4 12 9 12 5 0 11 10
15 23 8 30 6 26 37 88 16 31 29 62 29 68 0 6 5 11 10 11 6 0 9 3 8 8 -1 4 11
33 25 66 15 32 27 62 27 67 0 5 5 9 12 9 6 0 9 3 5 6 -3 3 3 21 14 40 10 19
19 41 19 49 0 8 5 15 10 15 6 0 10 9 10 20 0 11 5 20 12 20 6 0 9 3 5 6 -3 3
5 27 18 52 36 73 96 206 98 217 1 6 4 12 7 15 12 12 50 93 50 106 0 8 5 14 10
14 6 0 9 3 8 8 -1 4 9 30 22 57 13 28 23 53 22 58 -1 4 2 7 8 7 6 0 9 3 8 8
-1 4 6 22 15 40 10 17 14 32 10 32 -5 0 -3 4 2 8 8 6 46 76 50 92 0 3 9 19 18
37 9 18 17 39 17 48 0 8 4 15 9 15 8 0 24 37 22 53 -1 4 4 7 9 7 5 0 9 3 8 8
-1 4 9 30 22 57 13 28 24 52 25 55 0 3 18 41 40 85 21 44 38 86 38 93 0 6 4
12 8 12 4 0 11 9 14 20 4 11 25 60 48 108 23 48 42 89 42 92 4 15 31 66 38 71
5 3 8 9 7 13 -3 10 23 70 33 77 4 3 9 12 11 20 1 8 8 25 15 38 24 44 21 98 -9
160 -16 32 -30 64 -32 72 -2 7 -9 20 -16 27 -7 8 -10 18 -7 23 4 5 1 9 -4 9
-6 0 -11 9 -11 20 0 11 -5 20 -11 20 -5 0 -7 5 -4 10 3 6 1 10 -4 10 -6 0 -10
3 -9 8 2 7 -23 63 -32 72 -3 3 -7 14 -8 25 -2 11 -13 32 -24 47 -10 15 -16 32
-13 38 3 5 2 10 -4 10 -5 0 -13 10 -17 23 -5 12 -9 24 -10 27 -1 3 -5 14 -8
25 -10 29 -61 32 -76 5 -6 -11 -8 -20 -5 -20 4 0 -1 -7 -9 -16 -9 -8 -14 -20
-11 -25 4 -5 1 -9 -5 -9 -6 0 -8 -5 -5 -10 3 -6 -1 -13 -9 -16 -9 -3 -14 -9
-11 -14 2 -4 -10 -36 -26 -71 -17 -35 -36 -75 -43 -89 -6 -14 -14 -27 -17 -30
-4 -3 -9 -16 -10 -30 -2 -14 -9 -29 -15 -35 -6 -5 -17 -26 -24 -45 -7 -19 -19
-42 -27 -51 -7 -9 -10 -19 -6 -22 3 -4 1 -7 -5 -7 -6 0 -9 -7 -6 -15 4 -8 2
-15 -4 -15 -6 0 -13 -13 -17 -30 -4 -16 -11 -30 -16 -30 -6 0 -8 -4 -4 -9 3
-5 1 -12 -5 -16 -6 -4 -8 -11 -5 -16 4 -5 1 -9 -4 -9 -6 0 -11 -7 -11 -15 0
-8 -4 -15 -9 -15 -6 0 -8 -9 -6 -20 2 -11 0 -20 -5 -20 -8 0 -34 -59 -31 -72
0 -5 -4 -8 -9 -8 -6 0 -10 -7 -10 -15 0 -8 -4 -15 -9 -15 -5 0 -8 -8 -7 -17 2
-10 -2 -21 -8 -25 -6 -4 -11 -11 -12 -15 0 -4 -7 -21 -14 -38 -7 -16 -13 -33
-12 -37 1 -5 -2 -8 -7 -8 -8 0 -20 -33 -20 -53 0 -5 -8 -15 -18 -23 -10 -7
-15 -14 -10 -14 4 0 -2 -17 -13 -37 -11 -21 -20 -43 -20 -50 0 -7 -4 -13 -10
-13 -5 0 -9 -3 -8 -7 1 -5 -9 -30 -21 -58 -13 -27 -22 -50 -21 -50 2 0 -9 -20
-24 -44 -15 -24 -23 -40 -17 -37 7 4 8 1 5 -8 -3 -9 -10 -13 -16 -10 -5 3 -8
0 -7 -7 1 -8 -20 -59 -46 -114 -27 -55 -50 -102 -50 -105 -3 -16 -49 -106 -57
-111 -5 -3 -9 -10 -9 -15 2 -20 -21 -74 -31 -74 -6 0 -9 -3 -5 -6 3 -4 -1 -21
-10 -38 -9 -17 -18 -37 -19 -45 -2 -8 -10 -18 -19 -23 -8 -5 -13 -14 -9 -19 3
-5 -1 -21 -10 -34 -9 -13 -16 -29 -16 -35 0 -6 -7 -18 -15 -27 -8 -8 -13 -18
-10 -23 3 -4 -2 -13 -10 -20 -8 -7 -15 -18 -15 -24 0 -7 -12 -37 -27 -67 -15
-30 -27 -56 -28 -59 -6 -29 -18 -49 -27 -44 -6 4 -8 3 -5 -3 8 -13 -23 -93
-35 -93 -5 0 -6 -4 -3 -10 3 -5 1 -10 -5 -10 -6 0 -9 -4 -5 -9 3 -5 1 -12 -5
-16 -6 -4 -8 -11 -5 -16 4 -5 1 -9 -5 -9 -6 0 -8 -4 -5 -10 3 -5 1 -10 -5 -10
-6 0 -9 -4 -6 -9 3 -5 -1 -14 -9 -21 -8 -7 -13 -16 -10 -20 3 -5 -2 -16 -11
-24 -8 -9 -13 -16 -10 -16 4 0 -5 -22 -19 -50 -14 -27 -25 -52 -25 -55 0 -3
-9 -21 -20 -40 -11 -20 -20 -42 -20 -49 0 -8 -5 -16 -11 -18 -5 -2 -11 -10
-13 -18 -1 -8 -8 -25 -14 -37 -7 -13 -9 -23 -5 -23 4 0 3 -4 -3 -8 -16 -11
-45 -73 -38 -83 3 -5 1 -9 -4 -9 -6 0 -13 -11 -16 -25 -4 -14 -11 -25 -17 -25
-6 0 -8 -4 -4 -9 3 -5 1 -12 -5 -16 -5 -3 -10 -13 -10 -22 0 -9 -8 -22 -17
-30 -10 -8 -13 -12 -6 -9 6 3 -4 -24 -23 -62 -19 -37 -34 -73 -34 -79 0 -7 -4
-13 -10 -13 -5 0 -9 -3 -8 -7 1 -5 -4 -19 -12 -33 -7 -14 -11 -26 -9 -27 2 -1
-4 -11 -13 -23 -10 -11 -16 -20 -13 -20 3 0 -6 -22 -19 -49 -14 -27 -22 -51
-19 -55 4 -3 2 -6 -3 -6 -5 0 -18 -22 -29 -50 -11 -27 -23 -50 -27 -50 -4 0
-8 -8 -8 -18 0 -10 -7 -27 -15 -38 -8 -10 -15 -27 -15 -36 0 -10 -5 -18 -11
-18 -5 0 -8 -4 -4 -9 3 -5 1 -12 -5 -16 -6 -4 -8 -11 -5 -16 4 -5 2 -9 -3 -9
-8 0 -52 -92 -52 -110 0 -6 -5 -10 -11 -10 -5 0 -8 -4 -4 -9 3 -5 -2 -16 -10
-25 -9 -8 -14 -17 -13 -19 5 -6 -46 -111 -57 -119 -5 -4 -7 -8 -3 -8 4 0 -5
-24 -19 -52 -15 -29 -26 -58 -26 -65 0 -7 -7 -15 -14 -17 -8 -3 -12 -10 -8
-15 3 -5 1 -12 -5 -16 -6 -4 -8 -11 -5 -16 4 -5 2 -9 -3 -9 -5 0 -15 -18 -22
-40 -7 -22 -17 -40 -21 -40 -4 0 -9 -10 -11 -22 -2 -14 -16 -29 -36 -39 -18
-10 -33 -20 -33 -23 1 -3 -13 -36 -31 -73 -17 -38 -32 -70 -33 -73 -1 -3 -18
-41 -39 -85 -57 -120 -63 -138 -64 -167 -1 -22 4 -28 41 -40 23 -8 68 -14 99
-14 32 1 58 -1 58 -4 0 -4 10 -6 23 -7 88 -4 113 -7 124 -15 7 -5 14 -5 18 2
3 6 11 8 16 5 5 -4 19 -9 31 -12 39 -9 1340 -10 1398 0 30 5 69 10 85 12 17 2
30 4 30 5 0 1 14 3 30 5 17 2 53 6 80 10 28 4 61 8 75 10 61 7 196 30 240 40
8 2 18 4 23 4 4 1 7 10 7 22 0 11 9 33 20 49 11 15 17 30 13 34 -3 3 0 6 7 6
7 0 11 3 7 6 -3 3 3 21 14 40 10 19 19 41 19 49 0 8 5 15 10 15 6 0 10 4 10 9
0 5 7 25 15 45 8 20 16 39 17 43 1 5 8 14 15 21 7 8 11 18 8 23 -4 5 -1 9 4 9
6 0 11 4 11 9 0 5 10 30 22 57 12 27 21 52 20 57 -1 4 3 7 8 7 5 0 9 3 8 8 -1
4 10 30 25 59 15 29 27 59 27 68 0 8 5 15 10 15 6 0 10 4 10 9 0 9 46 112 108
241 15 30 27 57 28 60 2 17 59 126 68 132 6 4 7 8 2 8 -5 0 -3 7 4 15 7 8 10
15 6 15 -3 0 5 20 19 44 13 24 21 46 18 50 -4 3 -1 6 5 6 6 0 13 14 17 30 4
17 11 30 16 30 5 0 9 4 9 9 0 5 5 22 11 38 6 15 9 28 7 28 -1 0 7 15 20 32 13
18 20 37 17 43 -3 5 -2 10 3 10 10 0 36 58 33 73 0 4 3 7 8 7 5 0 12 14 16 30
4 17 13 37 21 44 8 8 15 23 17 34 2 11 9 27 16 36 7 9 10 16 7 16 -4 0 2 14
14 30 12 17 19 30 15 30 -3 0 0 10 7 23 7 12 12 25 13 29 0 4 6 13 13 20 6 6
12 18 12 25 0 7 4 13 10 13 5 0 7 6 4 14 -3 7 1 20 9 27 7 8 14 16 14 19 0 3
10 28 23 55 13 28 22 53 22 58 -1 4 2 7 8 7 6 0 9 3 8 8 -1 4 4 21 11 37 7 17
12 32 11 34 -1 2 3 7 10 11 6 4 12 16 13 28 0 12 7 24 14 26 7 3 13 14 13 25
0 11 8 27 18 37 9 10 16 18 14 18 -8 2 11 56 20 56 5 0 6 5 3 10 -3 6 -1 10 5
10 6 0 8 5 5 10 -3 6 -1 10 6 10 7 0 9 3 6 6 -3 4 7 32 23 62 16 30 27 59 24
64 -3 4 -1 8 4 8 9 0 25 37 23 53 -1 4 3 7 8 7 8 0 17 21 26 59 2 8 10 18 17
22 7 5 9 9 4 9 -5 0 -3 6 3 13 6 8 8 17 4 20 -3 4 -1 7 5 7 7 0 12 4 12 9 0 5
19 50 42 100 31 67 50 95 69 103 34 15 32 53 -6 121 -15 26 -23 47 -18 47 4 0
0 5 -10 11 -9 6 -15 14 -12 20 4 5 1 9 -5 9 -6 0 -8 5 -5 10 3 6 1 10 -5 10
-6 0 -9 4 -6 9 4 5 2 11 -3 13 -5 1 -11 10 -13 18 -2 8 -9 21 -16 28 -7 8 -10
18 -7 23 4 5 1 9 -4 9 -6 0 -11 9 -11 19 0 10 -7 22 -16 25 -9 4 -14 9 -11 12
6 6 -86 191 -104 209 -5 5 -9 15 -9 22 0 7 -11 30 -24 51 -12 20 -24 40 -24
45 -1 4 -15 34 -32 67 -17 33 -29 61 -28 62 1 2 -10 21 -23 43 -14 22 -45 81
-69 130 -24 50 -48 92 -52 93 -4 2 -8 9 -8 15 0 16 -72 160 -85 169 -7 5 -7 8
0 8 7 0 7 3 0 8 -13 9 -181 344 -177 354 1 5 -2 8 -8 8 -5 0 -10 6 -10 13 0 6
-9 23 -20 37 -11 14 -20 33 -20 42 0 9 -3 18 -7 20 -10 4 -47 80 -45 91 2 9
10 8 -190 10 -151 2 -167 0 -172 -15z"/>
<path d="M7488 6407 c-39 -72 -56 -111 -52 -119 3 -4 0 -8 -6 -8 -6 0 -8 -4
-5 -10 3 -5 2 -10 -2 -10 -5 0 -17 -23 -28 -51 -11 -28 -26 -55 -32 -61 -7 -6
-13 -18 -13 -27 0 -9 -5 -22 -12 -29 -7 -7 -8 -12 -2 -12 5 0 3 -4 -4 -9 -7
-4 -14 -14 -16 -22 -1 -8 -18 -45 -36 -84 -19 -38 -35 -72 -35 -75 -7 -23 -50
-106 -56 -108 -5 -2 -7 -8 -3 -13 3 -5 -4 -22 -15 -38 -12 -16 -21 -36 -21
-44 0 -9 -7 -23 -16 -31 -8 -9 -13 -16 -9 -16 3 0 -2 -15 -12 -32 -9 -18 -18
-35 -18 -38 0 -3 -6 -15 -13 -27 -7 -13 -9 -23 -5 -23 4 0 2 -4 -6 -9 -8 -5
-16 -17 -17 -26 -1 -9 -10 -27 -18 -40 -9 -13 -17 -34 -19 -45 -2 -12 -10 -26
-18 -31 -8 -5 -11 -9 -7 -9 4 0 -5 -24 -19 -52 -15 -29 -25 -53 -22 -53 2 0
-6 -16 -19 -36 -12 -20 -22 -44 -22 -53 0 -9 -4 -16 -10 -16 -5 0 -9 -3 -8 -7
1 -5 -6 -23 -15 -40 -10 -18 -14 -33 -10 -33 5 0 1 -6 -7 -13 -16 -13 -18 -18
-24 -71 -4 -29 -2 -32 17 -30 12 1 26 3 30 3 5 1 5 6 1 13 -4 6 -3 8 3 5 10
-6 53 23 82 56 8 9 19 17 24 17 5 0 23 16 40 35 17 19 36 35 42 35 6 0 17 9
25 20 8 11 20 20 28 20 7 0 10 5 7 10 -3 6 -1 10 4 10 6 0 19 8 29 18 32 30
77 66 82 66 3 0 13 10 23 23 10 13 24 23 30 23 12 0 52 -77 49 -92 -1 -5 3 -8
8 -8 5 0 9 -3 9 -7 -4 -22 2 -44 10 -39 8 5 26 -48 22 -66 0 -5 4 -8 10 -8 5
0 8 -4 5 -9 -4 -5 -1 -11 4 -13 6 -2 12 -10 14 -18 2 -8 8 -28 14 -43 15 -35
15 -47 2 -47 -5 0 -12 0 -15 0 -2 -1 -17 -13 -32 -28 -37 -36 -86 -72 -95 -69
-4 1 -13 -5 -20 -14 -7 -9 -38 -35 -68 -58 -82 -61 -100 -75 -113 -86 -7 -5
-30 -23 -52 -39 -22 -17 -43 -35 -47 -40 -4 -6 -8 -8 -8 -4 0 7 -33 -18 -66
-50 -8 -7 -14 -11 -14 -8 0 3 -8 -2 -19 -11 -27 -25 -62 -52 -93 -71 -16 -9
-28 -20 -28 -24 0 -4 -6 -8 -14 -8 -8 0 -16 -7 -20 -15 -3 -8 -12 -15 -20 -15
-8 0 -16 -3 -18 -8 -4 -10 -93 -82 -101 -82 -7 0 -48 -33 -80 -65 -11 -11 -16
-13 -11 -5 4 8 -6 2 -24 -15 -18 -16 -32 -35 -32 -42 0 -6 -7 -19 -16 -27 -8
-9 -13 -16 -10 -16 4 0 -6 -24 -21 -52 -15 -29 -28 -59 -29 -67 -2 -8 -6 -17
-11 -20 -4 -3 -9 -10 -10 -16 -1 -5 -23 -55 -49 -110 -27 -55 -47 -103 -46
-107 1 -5 -2 -8 -8 -8 -5 0 -10 -4 -10 -9 0 -5 -7 -25 -15 -45 -8 -20 -16 -39
-17 -43 0 -5 -11 -24 -23 -43 -12 -19 -24 -52 -27 -73 -4 -34 -2 -37 22 -38
58 -1 336 0 345 1 6 1 15 3 20 5 6 1 15 3 21 3 5 1 24 15 40 31 17 17 36 31
43 33 8 2 23 12 35 23 12 11 34 29 50 40 16 11 37 27 47 37 9 9 20 14 23 11 3
-3 8 2 12 11 3 9 13 16 20 16 8 0 17 7 20 15 4 8 10 15 15 15 9 0 37 21 71 53
10 9 18 14 18 10 0 -5 6 -1 13 8 7 8 25 24 42 35 35 22 61 42 87 67 10 9 18
15 18 12 0 -4 24 13 54 40 6 6 36 28 66 50 30 22 63 48 72 58 9 10 19 18 22
17 10 -1 56 32 92 66 18 17 35 30 37 27 3 -2 15 8 28 22 13 13 29 25 36 25 6
0 13 3 15 8 2 4 32 28 68 54 36 26 70 51 75 56 21 17 38 25 31 14 -3 -6 0 -17
8 -25 8 -8 12 -17 9 -21 -3 -3 0 -12 7 -21 7 -8 9 -15 4 -15 -5 0 -3 -4 4 -9
7 -4 14 -18 15 -29 1 -12 5 -22 9 -22 4 0 8 -7 8 -15 0 -8 4 -15 8 -15 20 0 8
-42 -19 -62 -16 -13 -46 -38 -66 -55 -21 -18 -41 -33 -45 -33 -8 0 -38 -23
-70 -52 -10 -10 -18 -15 -18 -10 0 4 -5 -1 -11 -11 -6 -9 -14 -15 -20 -12 -5
4 -9 2 -9 -3 0 -5 -25 -26 -55 -48 -30 -21 -55 -42 -55 -46 0 -5 -4 -8 -9 -8
-5 0 -68 -44 -138 -97 -71 -54 -142 -107 -157 -118 -15 -11 -40 -30 -54 -42
-15 -13 -30 -23 -34 -23 -11 0 -9 -42 2 -60 9 -13 10 -13 10 0 0 10 3 11 8 4
8 -12 80 -13 99 -1 6 4 14 3 17 -2 7 -10 86 -9 103 2 6 4 14 3 17 -1 6 -11
111 -10 122 0 4 4 14 3 23 -2 10 -5 23 -5 31 0 7 4 23 4 35 0 14 -5 27 -4 34
3 7 7 11 7 11 1 0 -12 29 -12 47 -1 6 4 14 4 17 -1 4 -7 41 -7 116 1 14 1 33
-1 43 -6 11 -5 17 -4 17 4 0 8 4 9 13 0 10 -8 17 -7 25 1 9 9 12 9 12 -1 0
-10 3 -11 13 -2 10 8 17 7 25 -1 7 -7 12 -8 12 -2 0 13 43 12 52 -1 5 -7 8 -6
8 1 0 11 58 13 76 1 6 -3 14 -3 18 0 12 12 67 12 60 1 -5 -7 -2 -8 6 -3 20 13
70 14 70 1 0 -7 3 -8 8 -1 8 12 41 13 58 3 6 -4 14 -4 18 0 13 12 227 11 219
-2 -5 -8 -3 -8 8 0 9 7 67 11 152 11 76 0 141 3 144 7 11 11 10 46 -1 46 -6 0
-5 4 3 9 11 7 10 11 -5 20 -11 6 -15 11 -10 11 4 0 2 10 -6 23 -8 12 -20 41
-28 65 -7 23 -17 42 -23 42 -5 0 -6 7 -3 16 3 9 2 12 -5 9 -6 -4 -9 -1 -8 6 1
8 -9 39 -23 69 -14 30 -29 65 -33 78 -3 12 -11 22 -16 22 -6 0 -7 5 -4 10 3 6
-1 17 -9 25 -8 9 -13 22 -10 30 4 8 2 15 -2 15 -5 0 -15 15 -23 33 -7 17 -19
46 -27 64 -8 17 -14 34 -14 39 0 4 -8 16 -17 27 -13 15 -14 18 -3 12 10 -6 9
-1 -3 13 -11 11 -16 25 -13 31 3 5 3 11 -1 13 -12 5 -54 92 -56 115 0 12 -5
19 -9 17 -7 -5 -12 10 -9 29 0 4 -3 7 -9 7 -6 0 -9 3 -8 8 1 4 -5 21 -12 37
-7 17 -14 32 -15 35 0 3 -6 15 -13 26 -6 12 -8 24 -5 28 3 3 1 6 -5 6 -7 0
-12 9 -12 20 0 11 -5 20 -11 20 -5 0 -7 5 -4 10 3 6 1 10 -5 10 -6 0 -9 4 -5
9 3 5 -1 16 -9 24 -8 8 -12 17 -9 21 3 3 0 12 -7 21 -7 8 -9 15 -4 15 5 0 0 7
-10 15 -11 8 -16 15 -12 15 5 0 3 7 -4 15 -7 8 -9 15 -5 15 4 0 2 7 -5 15 -6
8 -9 18 -6 24 3 5 -1 11 -9 15 -8 3 -15 15 -15 26 0 11 -5 20 -11 20 -6 0 -9
6 -6 13 2 6 -3 18 -12 25 -9 8 -10 10 -2 7 9 -5 8 1 -4 19 -10 14 -13 26 -9
26 5 0 4 4 -1 8 -11 7 -25 37 -45 90 -7 17 -16 32 -21 32 -5 0 -8 3 -7 8 5 13
-35 107 -51 120 -9 8 -10 11 -3 7 6 -3 12 -1 12 4 0 6 -4 11 -10 11 -5 0 -10
9 -10 20 0 11 -4 20 -10 20 -5 0 -10 7 -10 15 0 8 -5 25 -12 38 -24 47 -28 57
-28 72 0 9 -4 13 -10 10 -6 -4 -10 5 -10 19 0 14 -4 26 -10 26 -5 0 -10 9 -10
19 0 11 -4 23 -10 26 -5 3 -10 15 -10 26 0 10 -5 19 -11 19 -5 0 -8 4 -4 9 3
5 1 12 -5 16 -6 4 -8 11 -5 16 4 5 1 9 -4 9 -6 0 -11 9 -11 20 0 11 -5 20 -11
20 -5 0 -8 4 -4 9 3 5 0 15 -7 23 -7 7 -14 21 -16 31 -2 10 -12 34 -23 53 -10
19 -19 41 -19 49 0 8 -4 15 -8 15 -5 0 -9 7 -10 15 -1 8 -3 22 -4 30 -1 8 -5
12 -9 10 -4 -3 -13 15 -20 40 -7 25 -17 45 -21 45 -4 0 -8 9 -8 21 0 11 -4 17
-10 14 -6 -3 -7 1 -4 9 3 9 1 16 -6 16 -6 0 -9 4 -6 9 3 5 -5 30 -19 55 -14
26 -25 51 -25 56 0 4 -18 46 -39 91 -22 46 -38 86 -35 90 2 4 -3 9 -11 13 -8
3 -12 12 -9 21 4 8 -1 17 -10 21 -9 3 -14 9 -12 13 3 4 -6 8 -19 9 -16 1 -29
-6 -37 -21z"/>
</g>
</svg>
